<mxfile host="app.diagrams.net" modified="2023-04-20T18:17:05.492Z" agent="Mozilla/5.0 (Windows NT 10.0; Win64; x64) AppleWebKit/537.36 (KHTML, like Gecko) Chrome/112.0.0.0 Safari/537.36" etag="J7a0m-lIeUlC-rAlT_2L" version="21.1.8" type="device">
  <diagram name="‫עמוד-1‬" id="G7DazwSMR3leTxONPV2J">
    <mxGraphModel dx="3797" dy="971" grid="1" gridSize="10" guides="1" tooltips="1" connect="1" arrows="1" fold="1" page="1" pageScale="1" pageWidth="827" pageHeight="1169" math="0" shadow="0">
      <root>
        <mxCell id="0" />
        <mxCell id="1" parent="0" />
        <mxCell id="uDuacBEOKKsOpZR4j4Og-7" style="edgeStyle=orthogonalEdgeStyle;rounded=0;orthogonalLoop=1;jettySize=auto;html=1;exitX=0;exitY=0.5;exitDx=0;exitDy=0;" edge="1" parent="1" source="uDuacBEOKKsOpZR4j4Og-5">
          <mxGeometry relative="1" as="geometry">
            <mxPoint x="-1310" y="402.33333333333326" as="targetPoint" />
          </mxGeometry>
        </mxCell>
        <mxCell id="uDuacBEOKKsOpZR4j4Og-5" value="ServiceLeyer" style="swimlane;horizontal=0;whiteSpace=wrap;html=1;" vertex="1" parent="1">
          <mxGeometry x="-1260" y="94" width="1150" height="616" as="geometry" />
        </mxCell>
        <mxCell id="bMfeRsnMBtOvUvjTb1X4-19" value="UserService" style="swimlane;fontStyle=1;align=center;verticalAlign=top;childLayout=stackLayout;horizontal=1;startSize=26;horizontalStack=0;resizeParent=1;resizeParentMax=0;resizeLast=0;collapsible=1;marginBottom=0;whiteSpace=wrap;html=1;" parent="uDuacBEOKKsOpZR4j4Og-5" vertex="1">
          <mxGeometry x="40" y="20" width="520" height="280" as="geometry" />
        </mxCell>
        <mxCell id="bMfeRsnMBtOvUvjTb1X4-20" value="+ userFacade: UserFacade" style="text;strokeColor=none;fillColor=none;align=left;verticalAlign=top;spacingLeft=4;spacingRight=4;overflow=hidden;rotatable=0;points=[[0,0.5],[1,0.5]];portConstraint=eastwest;whiteSpace=wrap;html=1;" parent="bMfeRsnMBtOvUvjTb1X4-19" vertex="1">
          <mxGeometry y="26" width="520" height="26" as="geometry" />
        </mxCell>
        <mxCell id="bMfeRsnMBtOvUvjTb1X4-21" value="" style="line;strokeWidth=1;fillColor=none;align=left;verticalAlign=middle;spacingTop=-1;spacingLeft=3;spacingRight=3;rotatable=0;labelPosition=right;points=[];portConstraint=eastwest;strokeColor=inherit;" parent="bMfeRsnMBtOvUvjTb1X4-19" vertex="1">
          <mxGeometry y="52" width="520" height="8" as="geometry" />
        </mxCell>
        <mxCell id="bMfeRsnMBtOvUvjTb1X4-22" value="+ register(email:string, password:string): string&lt;br&gt;+ login(email:string, password:string): string&lt;br&gt;+ logout(email:string):string&lt;br&gt;+ getInProgressTasks(email:string): string&lt;br&gt;+ getBoards(email: string): string&amp;nbsp;&lt;br&gt;+ createBoard(email: string, boardName: string)&lt;br&gt;+ deleteBoard(email: string, boardName: string)" style="text;strokeColor=none;fillColor=none;align=left;verticalAlign=top;spacingLeft=4;spacingRight=4;overflow=hidden;rotatable=0;points=[[0,0.5],[1,0.5]];portConstraint=eastwest;whiteSpace=wrap;html=1;" parent="bMfeRsnMBtOvUvjTb1X4-19" vertex="1">
          <mxGeometry y="60" width="520" height="220" as="geometry" />
        </mxCell>
        <mxCell id="bMfeRsnMBtOvUvjTb1X4-6" value="BoardService" style="swimlane;fontStyle=1;align=center;verticalAlign=top;childLayout=stackLayout;horizontal=1;startSize=26;horizontalStack=0;resizeParent=1;resizeParentMax=0;resizeLast=0;collapsible=1;marginBottom=0;whiteSpace=wrap;html=1;" parent="uDuacBEOKKsOpZR4j4Og-5" vertex="1">
          <mxGeometry x="40" y="316" width="520" height="281" as="geometry" />
        </mxCell>
        <mxCell id="bMfeRsnMBtOvUvjTb1X4-7" value="+ boardFacade: BoardFacade" style="text;strokeColor=none;fillColor=none;align=left;verticalAlign=top;spacingLeft=4;spacingRight=4;overflow=hidden;rotatable=0;points=[[0,0.5],[1,0.5]];portConstraint=eastwest;whiteSpace=wrap;html=1;" parent="bMfeRsnMBtOvUvjTb1X4-6" vertex="1">
          <mxGeometry y="26" width="520" height="26" as="geometry" />
        </mxCell>
        <mxCell id="bMfeRsnMBtOvUvjTb1X4-8" value="" style="line;strokeWidth=1;fillColor=none;align=left;verticalAlign=middle;spacingTop=-1;spacingLeft=3;spacingRight=3;rotatable=0;labelPosition=right;points=[];portConstraint=eastwest;strokeColor=inherit;" parent="bMfeRsnMBtOvUvjTb1X4-6" vertex="1">
          <mxGeometry y="52" width="520" height="8" as="geometry" />
        </mxCell>
        <mxCell id="bMfeRsnMBtOvUvjTb1X4-9" value="+ create(email:string, boardName:string): string&lt;br&gt;+ delete(email:string,boardName:string): string&lt;br&gt;+ createTask(email:string, boardName:string, title: string, description: string):string&lt;br&gt;+ deleteTask(email:string, boardName:string, id: int): string&lt;br&gt;+ moveTask(email:string, boardName:string, id: int): string&lt;br&gt;+&amp;nbsp;setBacklogLimit(limit:int):string&lt;br&gt;+&amp;nbsp;setInProgressLimit(limit:int):string&lt;br&gt;+&amp;nbsp;setDoneLimit(limit:int):string&lt;br&gt;+ getBoardAtributes(boardId:int):string&amp;nbsp;" style="text;strokeColor=none;fillColor=none;align=left;verticalAlign=top;spacingLeft=4;spacingRight=4;overflow=hidden;rotatable=0;points=[[0,0.5],[1,0.5]];portConstraint=eastwest;whiteSpace=wrap;html=1;" parent="bMfeRsnMBtOvUvjTb1X4-6" vertex="1">
          <mxGeometry y="60" width="520" height="221" as="geometry" />
        </mxCell>
        <mxCell id="bMfeRsnMBtOvUvjTb1X4-15" value="TaskService" style="swimlane;fontStyle=1;align=center;verticalAlign=top;childLayout=stackLayout;horizontal=1;startSize=26;horizontalStack=0;resizeParent=1;resizeParentMax=0;resizeLast=0;collapsible=1;marginBottom=0;whiteSpace=wrap;html=1;" parent="uDuacBEOKKsOpZR4j4Og-5" vertex="1">
          <mxGeometry x="600" y="20" width="520" height="280" as="geometry" />
        </mxCell>
        <mxCell id="bMfeRsnMBtOvUvjTb1X4-16" value="+ taskFacade: TaskFacade" style="text;strokeColor=none;fillColor=none;align=left;verticalAlign=top;spacingLeft=4;spacingRight=4;overflow=hidden;rotatable=0;points=[[0,0.5],[1,0.5]];portConstraint=eastwest;whiteSpace=wrap;html=1;" parent="bMfeRsnMBtOvUvjTb1X4-15" vertex="1">
          <mxGeometry y="26" width="520" height="26" as="geometry" />
        </mxCell>
        <mxCell id="bMfeRsnMBtOvUvjTb1X4-17" value="" style="line;strokeWidth=1;fillColor=none;align=left;verticalAlign=middle;spacingTop=-1;spacingLeft=3;spacingRight=3;rotatable=0;labelPosition=right;points=[];portConstraint=eastwest;strokeColor=inherit;" parent="bMfeRsnMBtOvUvjTb1X4-15" vertex="1">
          <mxGeometry y="52" width="520" height="8" as="geometry" />
        </mxCell>
        <mxCell id="bMfeRsnMBtOvUvjTb1X4-18" value="+ create(title:string, description: string, dueTime:list&amp;lt;string&amp;gt;, newLabel:List&amp;lt;int&amp;gt;)&lt;br&gt;+ delete(id:int): string&lt;br&gt;+ changeTitle(id:int, newTitle:string)&lt;br&gt;+ changeDescription(id: int, newDescription:string):string&lt;br&gt;+ changeDue(id: int, newDueTime:list&amp;lt;string&amp;gt;):string&lt;br&gt;+ changeId(id:int, newId:int):string&lt;br&gt;+ getTimeLeft(id: int): string&lt;br&gt;+ changeLabel(id:int, newLabel: List&amp;lt;int&amp;gt;)" style="text;strokeColor=none;fillColor=none;align=left;verticalAlign=top;spacingLeft=4;spacingRight=4;overflow=hidden;rotatable=0;points=[[0,0.5],[1,0.5]];portConstraint=eastwest;whiteSpace=wrap;html=1;" parent="bMfeRsnMBtOvUvjTb1X4-15" vertex="1">
          <mxGeometry y="60" width="520" height="220" as="geometry" />
        </mxCell>
        <mxCell id="uDuacBEOKKsOpZR4j4Og-1" value="Response" style="swimlane;fontStyle=1;align=center;verticalAlign=top;childLayout=stackLayout;horizontal=1;startSize=26;horizontalStack=0;resizeParent=1;resizeParentMax=0;resizeLast=0;collapsible=1;marginBottom=0;whiteSpace=wrap;html=1;" vertex="1" parent="uDuacBEOKKsOpZR4j4Og-5">
          <mxGeometry x="600" y="316" width="520" height="110" as="geometry" />
        </mxCell>
        <mxCell id="uDuacBEOKKsOpZR4j4Og-2" value="+ ErrorMessage: string&lt;br&gt;+ ErrorOccured:bool" style="text;strokeColor=none;fillColor=none;align=left;verticalAlign=top;spacingLeft=4;spacingRight=4;overflow=hidden;rotatable=0;points=[[0,0.5],[1,0.5]];portConstraint=eastwest;whiteSpace=wrap;html=1;" vertex="1" parent="uDuacBEOKKsOpZR4j4Og-1">
          <mxGeometry y="26" width="520" height="34" as="geometry" />
        </mxCell>
        <mxCell id="uDuacBEOKKsOpZR4j4Og-3" value="" style="line;strokeWidth=1;fillColor=none;align=left;verticalAlign=middle;spacingTop=-1;spacingLeft=3;spacingRight=3;rotatable=0;labelPosition=right;points=[];portConstraint=eastwest;strokeColor=inherit;" vertex="1" parent="uDuacBEOKKsOpZR4j4Og-1">
          <mxGeometry y="60" width="520" height="8" as="geometry" />
        </mxCell>
        <mxCell id="uDuacBEOKKsOpZR4j4Og-4" value="+ Response(msg:string)&lt;br&gt;+ Response()" style="text;strokeColor=none;fillColor=none;align=left;verticalAlign=top;spacingLeft=4;spacingRight=4;overflow=hidden;rotatable=0;points=[[0,0.5],[1,0.5]];portConstraint=eastwest;whiteSpace=wrap;html=1;" vertex="1" parent="uDuacBEOKKsOpZR4j4Og-1">
          <mxGeometry y="68" width="520" height="42" as="geometry" />
        </mxCell>
        <mxCell id="uDuacBEOKKsOpZR4j4Og-6" value="BusinessLeyer" style="swimlane;horizontal=0;whiteSpace=wrap;html=1;" vertex="1" parent="1">
          <mxGeometry x="-2460" y="110" width="1150" height="510" as="geometry" />
        </mxCell>
        <mxCell id="bMfeRsnMBtOvUvjTb1X4-23" value="User" style="swimlane;fontStyle=1;align=center;verticalAlign=top;childLayout=stackLayout;horizontal=1;startSize=26;horizontalStack=0;resizeParent=1;resizeParentMax=0;resizeLast=0;collapsible=1;marginBottom=0;whiteSpace=wrap;html=1;" parent="uDuacBEOKKsOpZR4j4Og-6" vertex="1">
          <mxGeometry x="50" y="30" width="520" height="78" as="geometry" />
        </mxCell>
        <mxCell id="bMfeRsnMBtOvUvjTb1X4-24" value="+ mail: string&lt;br&gt;+ password: string&lt;br&gt;+ boardsIds: List&amp;lt;int&amp;gt;" style="text;strokeColor=none;fillColor=none;align=left;verticalAlign=top;spacingLeft=4;spacingRight=4;overflow=hidden;rotatable=0;points=[[0,0.5],[1,0.5]];portConstraint=eastwest;whiteSpace=wrap;html=1;" parent="bMfeRsnMBtOvUvjTb1X4-23" vertex="1">
          <mxGeometry y="26" width="520" height="44" as="geometry" />
        </mxCell>
        <mxCell id="bMfeRsnMBtOvUvjTb1X4-25" value="" style="line;strokeWidth=1;fillColor=none;align=left;verticalAlign=middle;spacingTop=-1;spacingLeft=3;spacingRight=3;rotatable=0;labelPosition=right;points=[];portConstraint=eastwest;strokeColor=inherit;" parent="bMfeRsnMBtOvUvjTb1X4-23" vertex="1">
          <mxGeometry y="70" width="520" height="8" as="geometry" />
        </mxCell>
        <mxCell id="bMfeRsnMBtOvUvjTb1X4-27" value="Board" style="swimlane;fontStyle=1;align=center;verticalAlign=top;childLayout=stackLayout;horizontal=1;startSize=26;horizontalStack=0;resizeParent=1;resizeParentMax=0;resizeLast=0;collapsible=1;marginBottom=0;whiteSpace=wrap;html=1;" parent="uDuacBEOKKsOpZR4j4Og-6" vertex="1">
          <mxGeometry x="50" y="130" width="520" height="118" as="geometry" />
        </mxCell>
        <mxCell id="bMfeRsnMBtOvUvjTb1X4-28" value="+ name: string&lt;br&gt;+ backlog: Column&lt;br&gt;+ inProgress: Column&lt;br&gt;+ done: Column&lt;br&gt;+ id: int" style="text;strokeColor=none;fillColor=none;align=left;verticalAlign=top;spacingLeft=4;spacingRight=4;overflow=hidden;rotatable=0;points=[[0,0.5],[1,0.5]];portConstraint=eastwest;whiteSpace=wrap;html=1;" parent="bMfeRsnMBtOvUvjTb1X4-27" vertex="1">
          <mxGeometry y="26" width="520" height="84" as="geometry" />
        </mxCell>
        <mxCell id="bMfeRsnMBtOvUvjTb1X4-29" value="" style="line;strokeWidth=1;fillColor=none;align=left;verticalAlign=middle;spacingTop=-1;spacingLeft=3;spacingRight=3;rotatable=0;labelPosition=right;points=[];portConstraint=eastwest;strokeColor=inherit;" parent="bMfeRsnMBtOvUvjTb1X4-27" vertex="1">
          <mxGeometry y="110" width="520" height="8" as="geometry" />
        </mxCell>
        <mxCell id="bMfeRsnMBtOvUvjTb1X4-31" value="Column" style="swimlane;fontStyle=1;align=center;verticalAlign=top;childLayout=stackLayout;horizontal=1;startSize=26;horizontalStack=0;resizeParent=1;resizeParentMax=0;resizeLast=0;collapsible=1;marginBottom=0;whiteSpace=wrap;html=1;" parent="uDuacBEOKKsOpZR4j4Og-6" vertex="1">
          <mxGeometry x="50" y="250" width="520" height="78" as="geometry" />
        </mxCell>
        <mxCell id="bMfeRsnMBtOvUvjTb1X4-32" value="+ maxTasks: int&lt;br&gt;+ tasks: list&amp;lt;Task&amp;gt;" style="text;strokeColor=none;fillColor=none;align=left;verticalAlign=top;spacingLeft=4;spacingRight=4;overflow=hidden;rotatable=0;points=[[0,0.5],[1,0.5]];portConstraint=eastwest;whiteSpace=wrap;html=1;" parent="bMfeRsnMBtOvUvjTb1X4-31" vertex="1">
          <mxGeometry y="26" width="520" height="44" as="geometry" />
        </mxCell>
        <mxCell id="bMfeRsnMBtOvUvjTb1X4-33" value="" style="line;strokeWidth=1;fillColor=none;align=left;verticalAlign=middle;spacingTop=-1;spacingLeft=3;spacingRight=3;rotatable=0;labelPosition=right;points=[];portConstraint=eastwest;strokeColor=inherit;" parent="bMfeRsnMBtOvUvjTb1X4-31" vertex="1">
          <mxGeometry y="70" width="520" height="8" as="geometry" />
        </mxCell>
        <mxCell id="bMfeRsnMBtOvUvjTb1X4-34" value="Task" style="swimlane;fontStyle=1;align=center;verticalAlign=top;childLayout=stackLayout;horizontal=1;startSize=26;horizontalStack=0;resizeParent=1;resizeParentMax=0;resizeLast=0;collapsible=1;marginBottom=0;whiteSpace=wrap;html=1;" parent="uDuacBEOKKsOpZR4j4Og-6" vertex="1">
          <mxGeometry x="50" y="350" width="520" height="138" as="geometry" />
        </mxCell>
        <mxCell id="bMfeRsnMBtOvUvjTb1X4-35" value="+ id: int&lt;br&gt;+ creationTime: List&amp;lt;string&amp;gt;&lt;br&gt;+ dueTime: List&amp;lt;string&amp;gt;&lt;br&gt;+ title: string&lt;br&gt;+ description: string&amp;nbsp;&lt;br&gt;+ color: string" style="text;strokeColor=none;fillColor=none;align=left;verticalAlign=top;spacingLeft=4;spacingRight=4;overflow=hidden;rotatable=0;points=[[0,0.5],[1,0.5]];portConstraint=eastwest;whiteSpace=wrap;html=1;" parent="bMfeRsnMBtOvUvjTb1X4-34" vertex="1">
          <mxGeometry y="26" width="520" height="104" as="geometry" />
        </mxCell>
        <mxCell id="bMfeRsnMBtOvUvjTb1X4-36" value="" style="line;strokeWidth=1;fillColor=none;align=left;verticalAlign=middle;spacingTop=-1;spacingLeft=3;spacingRight=3;rotatable=0;labelPosition=right;points=[];portConstraint=eastwest;strokeColor=inherit;" parent="bMfeRsnMBtOvUvjTb1X4-34" vertex="1">
          <mxGeometry y="130" width="520" height="8" as="geometry" />
        </mxCell>
        <mxCell id="bMfeRsnMBtOvUvjTb1X4-37" value="UserFacade" style="swimlane;fontStyle=1;align=center;verticalAlign=top;childLayout=stackLayout;horizontal=1;startSize=26;horizontalStack=0;resizeParent=1;resizeParentMax=0;resizeLast=0;collapsible=1;marginBottom=0;whiteSpace=wrap;html=1;" parent="uDuacBEOKKsOpZR4j4Og-6" vertex="1">
          <mxGeometry x="620" y="32" width="520" height="58" as="geometry" />
        </mxCell>
        <mxCell id="bMfeRsnMBtOvUvjTb1X4-38" value="+ allUsers: List&amp;lt;User&amp;gt;" style="text;strokeColor=none;fillColor=none;align=left;verticalAlign=top;spacingLeft=4;spacingRight=4;overflow=hidden;rotatable=0;points=[[0,0.5],[1,0.5]];portConstraint=eastwest;whiteSpace=wrap;html=1;" parent="bMfeRsnMBtOvUvjTb1X4-37" vertex="1">
          <mxGeometry y="26" width="520" height="24" as="geometry" />
        </mxCell>
        <mxCell id="bMfeRsnMBtOvUvjTb1X4-39" value="" style="line;strokeWidth=1;fillColor=none;align=left;verticalAlign=middle;spacingTop=-1;spacingLeft=3;spacingRight=3;rotatable=0;labelPosition=right;points=[];portConstraint=eastwest;strokeColor=inherit;" parent="bMfeRsnMBtOvUvjTb1X4-37" vertex="1">
          <mxGeometry y="50" width="520" height="8" as="geometry" />
        </mxCell>
        <mxCell id="bMfeRsnMBtOvUvjTb1X4-40" value="BoardFacade" style="swimlane;fontStyle=1;align=center;verticalAlign=top;childLayout=stackLayout;horizontal=1;startSize=26;horizontalStack=0;resizeParent=1;resizeParentMax=0;resizeLast=0;collapsible=1;marginBottom=0;whiteSpace=wrap;html=1;" parent="uDuacBEOKKsOpZR4j4Og-6" vertex="1">
          <mxGeometry x="620" y="112" width="520" height="58" as="geometry" />
        </mxCell>
        <mxCell id="bMfeRsnMBtOvUvjTb1X4-41" value="+ allBoards: List&amp;lt;Board&amp;gt;" style="text;strokeColor=none;fillColor=none;align=left;verticalAlign=top;spacingLeft=4;spacingRight=4;overflow=hidden;rotatable=0;points=[[0,0.5],[1,0.5]];portConstraint=eastwest;whiteSpace=wrap;html=1;" parent="bMfeRsnMBtOvUvjTb1X4-40" vertex="1">
          <mxGeometry y="26" width="520" height="24" as="geometry" />
        </mxCell>
        <mxCell id="bMfeRsnMBtOvUvjTb1X4-42" value="" style="line;strokeWidth=1;fillColor=none;align=left;verticalAlign=middle;spacingTop=-1;spacingLeft=3;spacingRight=3;rotatable=0;labelPosition=right;points=[];portConstraint=eastwest;strokeColor=inherit;" parent="bMfeRsnMBtOvUvjTb1X4-40" vertex="1">
          <mxGeometry y="50" width="520" height="8" as="geometry" />
        </mxCell>
        <mxCell id="bMfeRsnMBtOvUvjTb1X4-43" value="TaskFacade" style="swimlane;fontStyle=1;align=center;verticalAlign=top;childLayout=stackLayout;horizontal=1;startSize=26;horizontalStack=0;resizeParent=1;resizeParentMax=0;resizeLast=0;collapsible=1;marginBottom=0;whiteSpace=wrap;html=1;" parent="uDuacBEOKKsOpZR4j4Og-6" vertex="1">
          <mxGeometry x="620" y="192" width="520" height="58" as="geometry" />
        </mxCell>
        <mxCell id="bMfeRsnMBtOvUvjTb1X4-44" value="+ allTasks: List&amp;lt;Task&amp;gt;" style="text;strokeColor=none;fillColor=none;align=left;verticalAlign=top;spacingLeft=4;spacingRight=4;overflow=hidden;rotatable=0;points=[[0,0.5],[1,0.5]];portConstraint=eastwest;whiteSpace=wrap;html=1;" parent="bMfeRsnMBtOvUvjTb1X4-43" vertex="1">
          <mxGeometry y="26" width="520" height="24" as="geometry" />
        </mxCell>
        <mxCell id="bMfeRsnMBtOvUvjTb1X4-45" value="" style="line;strokeWidth=1;fillColor=none;align=left;verticalAlign=middle;spacingTop=-1;spacingLeft=3;spacingRight=3;rotatable=0;labelPosition=right;points=[];portConstraint=eastwest;strokeColor=inherit;" parent="bMfeRsnMBtOvUvjTb1X4-43" vertex="1">
          <mxGeometry y="50" width="520" height="8" as="geometry" />
        </mxCell>
      </root>
    </mxGraphModel>
  </diagram>
</mxfile>
